<?xml version="1.0" encoding="utf-8"?>
<!-- Generator: Adobe Illustrator 17.1.0, SVG Export Plug-In . SVG Version: 6.00 Build 0)  -->
<!DOCTYPE svg PUBLIC "-//W3C//DTD SVG 1.1//EN" "http://www.w3.org/Graphics/SVG/1.1/DTD/svg11.dtd">
<svg version="1.1" id="Layer_1" xmlns="http://www.w3.org/2000/svg" xmlns:xlink="http://www.w3.org/1999/xlink" x="0px" y="0px"
	 viewBox="182.2 378 247.6 171.9" enable-background="new 182.2 378 247.6 171.9" xml:space="preserve">
<g>
	<g>
		<path fill="#888888" d="M273.9,494.2c1.6-5.5,10.3-16.8,10.4-18.5c0.1-0.6,0.1-4.9,0.1-10.2c0.1-9.6,0-62.3,0-62.3l-16.6-10.4
			l-15.3,10.4c0,0-1,57.6-1.7,61.2c-0.7,3.7-1.4,7.3-2.4,11c-1.8,6.8-4.2,13.3-7.1,19.4v0.1L273.9,494.2z"/>
		<path fill="#888888" d="M273.9,512.7l-43.3-0.8c-0.6,0.8-1.1,1.5-1.7,2.3c-5.7,7.1-13,14.1-21.8,20.7c-7,5.2-15.1,10.2-24.8,15.1
			h73.9c4-4.8,7.2-9.9,10-15.1c3.4-6.3,6.2-13,8.5-19.8C274.3,514.2,274.1,513.5,273.9,512.7z"/>
	</g>
	<g>
		<path fill="#888888" d="M288.8,474.8c5.1-3,10.9-4.8,17.1-4.8c6.2,0,12,1.8,17.1,4.8c-0.3-4.1-0.6-8.4-0.8-12.6
			c-0.2-4.3-0.2-73.5-0.2-73.5L306,378l-16.2,10.7c0,0,0.1,69.3-0.1,73.6C289.4,466.5,289.2,470.6,288.8,474.8z"/>
		<path fill="#888888" d="M331.9,524.6c-6.2,7.6-15.6,12.3-25.9,12.3s-19.7-4.8-25.9-12.3c-1.1,3.5-2.4,7-3.7,10.3
			c-2.1,5.2-4.5,10.2-7.4,15.1H343c-2.9-4.8-5.4-9.9-7.4-15.1C334.2,531.5,333,528,331.9,524.6z"/>
	</g>
	<g>
		<path fill="#888888" d="M327.7,475.6c0.1,1.7,8.8,13.1,10.4,18.5l32.6,0.7v-0.1c-3-6.1-5.4-12.6-7.1-19.4c-0.9-3.7-1.8-7.3-2.4-11
			c-0.7-3.7-1.7-61.1-1.7-61.1l-15.3-10.4l-16.6,10.4l0.1,62.3L327.7,475.6z"/>
		<path fill="#888888" d="M404.9,534.8c-8.8-6.6-16-13.5-21.7-20.7c-0.6-0.8-1.1-1.5-1.8-2.3l-43.3,0.8c-0.2,0.8-0.5,1.5-0.8,2.3
			c2.3,6.9,5.1,13.5,8.5,19.8c2.8,5.2,6.1,10.2,10.1,15.1h73.9C420.1,545.1,411.9,540,404.9,534.8z"/>
	</g>
	<g>
		<path fill="#888888" d="M230.1,499l42.5,0.8c0.2-1.3,0.4-2.5,0.7-3.9l-43.3,0.8c-0.6,0-1,0.5-1,1.1C229,498.6,229.6,499,230.1,499
			z"/>
		<path fill="#888888" d="M339.3,499.7l42.8-0.8c0.6,0,1-0.5,1-1.1c0-0.7-0.5-1.1-1-1.1l-43.5-0.8
			C338.9,497.2,339.2,498.4,339.3,499.7z"/>
		<path fill="#888888" d="M272.5,503.5c0-1,0.1-2.1,0.2-3l-67.8,2c-0.6,0-1,0.5-1,1.1c0,0.7,0.5,1.1,1,1.1l67.8,2
			C272.6,505.5,272.5,504.5,272.5,503.5z"/>
		<path fill="#888888" d="M272.7,507.1l-42.6,0.8c-0.6,0-1,0.5-1,1.1c0,0.7,0.5,1.1,1,1.1l43.3,0.8
			C273.1,509.7,272.8,508.5,272.7,507.1z"/>
		<path fill="#888888" d="M407.4,502.3l-68-2c0.1,1,0.2,2,0.2,3c0,1-0.1,2.1-0.2,3l68-2c0.6,0,1-0.5,1-1.1
			C408.4,502.6,407.9,502.3,407.4,502.3z"/>
		<path fill="#888888" d="M382.1,508l-42.8-0.8c-0.2,1.3-0.4,2.5-0.7,3.9l43.5-0.8c0.6,0,1-0.5,1-1.1
			C383.1,508.4,382.6,508,382.1,508z"/>
	</g>
	<path fill="#888888" d="M306,474.5c-16,0-28.9,13-28.9,28.9c0,16,13,28.9,28.9,28.9c16,0,29-13,29-28.9
		C334.9,487.5,321.9,474.5,306,474.5z M311.4,503.6c0,3-2.4,5.4-5.4,5.4c-3,0-5.4-2.4-5.4-5.4c0-3,2.4-5.4,5.4-5.4
		C309,498.1,311.4,500.6,311.4,503.6z M281.4,504.4h-0.8v-0.8c0-9,4.9-17.5,12.7-22.1l0.8-0.5l0.5,0.8l8.7,15.1l0.4,0.8l-0.8,0.5
		c-2,1.1-3.2,3.2-3.2,5.5v0.8h-0.8L281.4,504.4z M318.8,525.6c-3.9,2.3-8.3,3.5-12.9,3.5c-4.4,0-8.8-1.1-12.6-3.4l-0.8-0.4l0.4-0.8
		l8.7-15.1l0.4-0.8l0.8,0.4c0.9,0.6,2,0.8,3.1,0.8c1.1,0,2.3-0.3,3.3-0.9l0.8-0.5l0.5,0.8l8.7,15.1l0.4,0.8L318.8,525.6z
		 M313.2,504.4h-0.8v-0.8c0-2.2-1.1-4.2-3-5.4l-0.7-0.5l0.4-0.8l8.7-15.1l0.5-0.8l0.8,0.5c7.7,4.6,12.5,13,12.5,22v0.8h-0.8
		L313.2,504.4z"/>
</g>
</svg>
